<?xml version="1.0" encoding="utf-8"?>
<!-- Generator: Adobe Illustrator 21.0.0, SVG Export Plug-In . SVG Version: 6.00 Build 0)  -->
<svg version="1.1" id="Layer_1" xmlns="http://www.w3.org/2000/svg" xmlns:xlink="http://www.w3.org/1999/xlink" x="0px" y="0px"
	 width="113px" height="45px" viewBox="0 0 1845 735.7" style="enable-background:new 0 0 1845 735.7;" xml:space="preserve">
<style type="text/css">
	.st0{fill:#E0232F;}
	.st1{fill:#FFFFFF;}
</style>
<g>
	<path class="st0" d="M1440,735.7c-0.1-2.3-0.2-4.7-0.2-7c0-171.5,0-343,0-514.4c0-1.7,0.1-3.3,0-5c0-2.5,1.2-3.7,3.6-3.7
		c1.2,0,2.3-0.1,3.5-0.1c38.7,0,77.3,0,116,0c7.4,0,7.4,0,7.4,7.5c0,9,0,18,0.1,27c0,0.3,0.2,0.6,0.4,1.4c3.4-2.6,5.3-6.3,7.9-9.3
		c18.4-21.5,42-33.8,69.7-37.5c46.6-6.3,87.7,7.8,124.1,36.2c41.2,32.1,63.9,75.1,70.8,126.6c0.5,3.8,1.1,7.5,1.7,11.3
		c0,11.3,0,22.7,0,34c-0.6,3.9-1.2,7.9-1.7,11.8c-6,44.4-24.6,82.4-58.6,112.1c-40,34.9-86.5,50.9-139.7,45.2
		c-24.2-2.6-46.1-11.4-64.6-27.7c-3.1-2.8-6.2-5.6-9.5-8.6c-1.2,2.6-0.7,4.8-0.7,6.9c0,61.9,0,123.9,0,185.8c0,2.5-0.2,5-0.3,7.5
		C1526.7,735.7,1483.3,735.7,1440,735.7z M1582,382.6c-0.3,21.3,1.9,41.8,10.4,61c6.2,14,15.7,25.2,30.3,30.9
		c28.7,11.2,66.9,4.3,87.1-30c15-25.4,19.1-53,14.2-81.9c-3.8-22.3-13.8-41.6-31.8-56.1c-37.5-30.3-89.7-14.9-104.5,30.7
		C1583,352.2,1581.6,367.6,1582,382.6z"/>
	<path class="st0" d="M1276.2,505.8c-3.9,4.3-7.6,8.7-11.6,13c-16.1,17.2-33.9,32.3-56.5,40.1c-33.9,11.7-68.4,13.3-102.6,2.4
		c-35.1-11.2-56.8-35.9-67-71.1c-4.8-16.4-7.1-33.2-7.2-50.3c-0.1-76,0-152-0.2-228c0-5,1.5-6.6,6.5-6.6
		c41.2,0.2,82.3,0.1,123.5,0.1c6.5,0,6.6,0.1,6.7,6.8c0,61.5,0,123,0,184.5c0,9.7,0.6,19.3,2.4,28.8c3.2,16.2,11,28.9,27.5,33.7
		c17.6,5.1,34.3,3,48.9-9.3c12.9-10.9,17.1-25.8,19.6-41.5c1.7-10.9,2.2-21.8,2.1-32.9c-0.1-54.2,0-108.3,0-162.5
		c0-7.7,0-7.7,7.8-7.7c40.3,0,80.7,0,121,0c7.6,0,7.6,0,7.6,7.3c0,113.3,0,226.6,0,340c0,7.1,0,7.2-7.2,7.2c-37.8,0-75.7,0-113.5,0
		c-6.6,0-6.7-0.1-6.7-6.7c0-13.8,0-27.7,0-41.5c0-1.8,0-3.6,0-5.4C1276.9,506.1,1276.5,506,1276.2,505.8z"/>
	<g>
		<g>
			<polygon class="st0" points="1017,203.3 855.7,203.3 694.3,379.3 855.7,558 1017,558 858.3,379.3 			"/>
		</g>
		<g>
			<polygon class="st1" points="0,0 327,0 327,124 151,124 151,204 327,204 327,323 149,323 149,558 0,558 			"/>
			<polyline class="st1" points="363,0 511,0 511,124.7 363,124.7 363,0 			"/>
			<rect x="363" y="203.3" class="st1" width="148" height="354.7"/>
			<polygon class="st1" points="534.3,203.3 699.7,203.3 855.7,379.3 695,558 534.3,558 691.7,379.3 			"/>
		</g>
	</g>
</g>
</svg>
