<?xml version="1.0" encoding="utf-8"?>
<!-- Generator: Adobe Illustrator 21.0.0, SVG Export Plug-In . SVG Version: 6.00 Build 0)  -->
<svg version="1.1" id="Layer_1" xmlns="http://www.w3.org/2000/svg" xmlns:xlink="http://www.w3.org/1999/xlink" x="0px" y="0px"
	 width="100px" height="100px" viewBox="0 0 550 219.3" style="enable-background:new 0 0 550 219.3;" xml:space="preserve">
<style type="text/css">
	.st0{fill:#413A60;}
	.st1{fill:#E31F27;}
</style>
<g>
	<g>
		<polygon class="st0" points="0,166.4 43.9,166.4 43.9,96.3 44.5,96.3 44.5,96.2 97.5,96.2 97.5,60.8 43.9,60.8 43.9,37.3 
			97.5,37.3 97.5,0.4 0,0.4 		"/>
		<polygon class="st0" points="108.3,166.4 152.3,166.4 152.2,60.9 108.3,60.9 		"/>
		<polygon class="st0" points="152,0.4 108,0.4 108,37.4 152.5,37.4 152.5,37.3 152,37.3 		"/>
		<polygon class="st0" points="208.8,60.9 159.2,60.9 206.2,113.6 159.2,166.3 207.3,166.3 255.5,113.4 		"/>
	</g>
	<g>
		<path class="st1" d="M378.1,111.8c0,9.6-1.5,16.3-4.6,20c-3.1,3.7-7,5.5-11.8,5.5c-4.4,0-7.8-1.4-10.2-4.2
			c-2.4-2.8-3.7-7.5-3.7-14.1V60.9h-40.6v67.2c0,13.8,3.1,24.1,9.4,30.7c6.3,6.7,15,10,26.1,10c8.3,0,15.3-1.5,21-4.5
			c5.7-3,11.3-7.9,16.9-14.9v17h37.7V60.9h-40.4V111.8z"/>
		<path class="st1" d="M302.3,60.9h-47.8c-7.7,8.8-15.3,17.2-22.8,25.6l23.9,26.9l-24.7,27.1l22.4,25.8h49.8l-47.4-53L302.3,60.9z"
			/>
		<path class="st1" d="M491.5,142.6c-16,0-20.2-14.3-20.2-29.1c0-14.1,4.5-27.2,20.2-27.2c14.3,0,23.1,13.3,23.1,27.2
			C514.6,128.3,506.9,142.6,491.5,142.6 M468.4,71.8H468V60.9h-38.7v158H468v-60.1h0.4c21.9,25.2,81.5,8,81.5-44.2
			C549.9,61.5,489.5,40.5,468.4,71.8"/>
	</g>
</g>
</svg>
